<svg width="183" height="151" viewBox="0 0 183 151" fill="none" xmlns="http://www.w3.org/2000/svg">
<circle cx="21" cy="130" r="20.5" fill="#D6D6D6" stroke="#B8B8B8"/>
<mask id="path-2-inside-1_2_18" fill="white">
<path fill-rule="evenodd" clip-rule="evenodd" d="M123.775 83.4685C128.703 88.2189 135.088 91.5546 142.364 92.6951C161.194 95.6469 178.851 82.7752 181.803 63.9452C184.755 45.1153 171.883 27.4576 153.053 24.5058C151.332 24.2359 149.62 24.0983 147.929 24.0854C143.447 13.4202 133.708 5.25457 121.44 3.33135C112.303 1.89895 103.441 4.19258 96.4025 9.08498C91.7457 4.61361 85.7198 1.47449 78.8579 0.398799C62.4893 -2.16721 47.0567 7.90085 42.4849 23.3682C25.5574 25.0159 11.2226 37.9054 8.46652 55.4862C5.1984 76.3337 19.4493 95.8832 40.2967 99.1513C51.252 100.869 61.8488 97.7483 69.9129 91.375C74.7591 96.7786 81.4281 100.609 89.158 101.821C103.834 104.121 117.757 96.2658 123.775 83.4685Z"/>
</mask>
<path fill-rule="evenodd" clip-rule="evenodd" d="M123.775 83.4685C128.703 88.2189 135.088 91.5546 142.364 92.6951C161.194 95.6469 178.851 82.7752 181.803 63.9452C184.755 45.1153 171.883 27.4576 153.053 24.5058C151.332 24.2359 149.62 24.0983 147.929 24.0854C143.447 13.4202 133.708 5.25457 121.44 3.33135C112.303 1.89895 103.441 4.19258 96.4025 9.08498C91.7457 4.61361 85.7198 1.47449 78.8579 0.398799C62.4893 -2.16721 47.0567 7.90085 42.4849 23.3682C25.5574 25.0159 11.2226 37.9054 8.46652 55.4862C5.1984 76.3337 19.4493 95.8832 40.2967 99.1513C51.252 100.869 61.8488 97.7483 69.9129 91.375C74.7591 96.7786 81.4281 100.609 89.158 101.821C103.834 104.121 117.757 96.2658 123.775 83.4685Z" fill="#D6D6D6"/>
<path d="M123.775 83.4685L124.469 82.7486L123.464 81.7797L122.87 83.043L123.775 83.4685ZM142.364 92.6951L142.518 91.7071L142.518 91.7071L142.364 92.6951ZM181.803 63.9452L180.815 63.7904L180.815 63.7904L181.803 63.9452ZM153.053 24.5058L152.898 25.4937L152.898 25.4937L153.053 24.5058ZM147.929 24.0854L147.007 24.4728L147.262 25.0804L147.921 25.0854L147.929 24.0854ZM121.44 3.33135L121.595 2.34342L121.595 2.34342L121.44 3.33135ZM96.4025 9.08498L95.7099 9.80631L96.3007 10.3736L96.9733 9.90612L96.4025 9.08498ZM78.8579 0.398799L78.7031 1.38673L78.8579 0.398799ZM42.4849 23.3682L42.5818 24.3635L43.2528 24.2981L43.4439 23.6516L42.4849 23.3682ZM8.46652 55.4862L9.45445 55.6411L9.45445 55.6411L8.46652 55.4862ZM40.2967 99.1513L40.4516 98.1634L40.4516 98.1634L40.2967 99.1513ZM69.9129 91.375L70.6574 90.7074L70.03 90.0079L69.2929 90.5905L69.9129 91.375ZM89.158 101.821L89.0032 102.809L89.0032 102.809L89.158 101.821ZM123.081 84.1885C128.152 89.0768 134.724 92.5097 142.209 93.683L142.518 91.7071C135.453 90.5995 129.254 87.361 124.469 82.7486L123.081 84.1885ZM142.209 93.683C161.584 96.7204 179.754 83.4757 182.791 64.1001L180.815 63.7904C177.949 82.0747 160.803 94.5735 142.518 91.7071L142.209 93.683ZM182.791 64.1001C185.828 44.7245 172.584 26.5552 153.208 23.5179L152.898 25.4937C171.183 28.36 183.681 45.506 180.815 63.7904L182.791 64.1001ZM153.208 23.5179C151.438 23.2403 149.677 23.0987 147.936 23.0855L147.921 25.0854C149.563 25.0979 151.226 25.2315 152.898 25.4937L153.208 23.5179ZM148.851 23.698C144.241 12.7266 134.22 4.32253 121.595 2.34342L121.285 4.31928C133.197 6.1866 142.654 14.1138 147.007 24.4728L148.851 23.698ZM121.595 2.34342C112.193 0.869571 103.074 3.23042 95.8318 8.26385L96.9733 9.90612C103.809 5.15474 112.412 2.92832 121.285 4.31928L121.595 2.34342ZM97.0951 8.36366C92.2953 3.75505 86.0835 0.519286 79.0128 -0.589136L78.7031 1.38673C85.3562 2.4297 91.196 5.47217 95.7099 9.80631L97.0951 8.36366ZM79.0128 -0.589136C62.1423 -3.23383 46.238 7.14288 41.5259 23.0847L43.4439 23.6516C47.8754 8.65881 62.8364 -1.10059 78.7031 1.38673L79.0128 -0.589136ZM42.388 22.3729C25.0177 24.0637 10.307 37.2891 7.47858 55.3313L9.45445 55.6411C12.1381 38.5218 26.0971 25.9681 42.5818 24.3635L42.388 22.3729ZM7.47858 55.3313C4.12493 76.7244 18.7488 96.7856 40.1418 100.139L40.4516 98.1634C20.1497 94.9808 6.27186 75.9429 9.45445 55.6411L7.47858 55.3313ZM40.1418 100.139C51.3838 101.902 62.2594 98.6984 70.533 92.1596L69.2929 90.5905C61.4383 96.7981 51.1201 99.8358 40.4516 98.1634L40.1418 100.139ZM89.3129 100.833C81.8187 99.6579 75.3554 95.9457 70.6574 90.7074L69.1685 92.0427C74.1628 97.6114 81.0375 101.56 89.0032 102.809L89.3129 100.833ZM122.87 83.043C117.036 95.449 103.538 103.063 89.3129 100.833L89.0032 102.809C104.13 105.18 118.478 97.0825 124.68 83.8941L122.87 83.043Z" fill="#B8B8B8" mask="url(#path-2-inside-1_2_18)"/>
</svg>
