<svg width="560" height="560" viewBox="0 0 560 560" fill="none" xmlns="http://www.w3.org/2000/svg">
<rect width="560" height="560" rx="186.667" fill="#141414"/>
<circle cx="149.333" cy="380.8" r="38.2667" fill="url(#paint0_linear_46_287)" stroke="#B8B8B8" stroke-width="1.86667"/>
<mask id="path-3-inside-1_46_287" fill="white">
<path fill-rule="evenodd" clip-rule="evenodd" d="M341.18 293.941C350.378 302.809 362.298 309.035 375.879 311.164C411.028 316.674 443.989 292.647 449.499 257.498C455.009 222.349 430.982 189.388 395.833 183.878C392.619 183.374 389.424 183.117 386.267 183.093C377.902 163.184 359.722 147.942 336.821 144.352C319.765 141.678 303.224 145.96 290.085 155.092C281.392 146.745 270.144 140.886 257.335 138.878C226.78 134.088 197.973 152.882 189.439 181.754C157.84 184.83 131.082 208.89 125.937 241.708C119.837 280.623 146.439 317.115 185.354 323.216C205.804 326.422 225.584 320.597 240.637 308.7C249.684 318.787 262.132 325.937 276.562 328.199C303.957 332.493 329.947 317.829 341.18 293.941Z"/>
</mask>
<path fill-rule="evenodd" clip-rule="evenodd" d="M341.18 293.941C350.378 302.809 362.298 309.035 375.879 311.164C411.028 316.674 443.989 292.647 449.499 257.498C455.009 222.349 430.982 189.388 395.833 183.878C392.619 183.374 389.424 183.117 386.267 183.093C377.902 163.184 359.722 147.942 336.821 144.352C319.765 141.678 303.224 145.96 290.085 155.092C281.392 146.745 270.144 140.886 257.335 138.878C226.78 134.088 197.973 152.882 189.439 181.754C157.84 184.83 131.082 208.89 125.937 241.708C119.837 280.623 146.439 317.115 185.354 323.216C205.804 326.422 225.584 320.597 240.637 308.7C249.684 318.787 262.132 325.937 276.562 328.199C303.957 332.493 329.947 317.829 341.18 293.941Z" fill="url(#paint1_linear_46_287)"/>
<path d="M341.18 293.941L342.476 292.597L340.6 290.789L339.491 293.147L341.18 293.941ZM375.879 311.164L376.168 309.32L376.168 309.32L375.879 311.164ZM449.499 257.498L451.343 257.787L451.343 257.787L449.499 257.498ZM395.833 183.878L395.543 185.722L395.543 185.722L395.833 183.878ZM386.267 183.093L384.546 183.816L385.023 184.95L386.253 184.959L386.267 183.093ZM336.821 144.352L336.532 146.196L336.532 146.196L336.821 144.352ZM290.085 155.092L288.792 156.438L289.895 157.497L291.15 156.625L290.085 155.092ZM257.335 138.878L257.624 137.034L257.335 138.878ZM189.439 181.754L189.619 183.612L190.872 183.49L191.229 182.283L189.439 181.754ZM125.937 241.708L127.782 241.997L127.782 241.997L125.937 241.708ZM185.354 323.216L185.065 325.06L185.065 325.06L185.354 323.216ZM240.637 308.7L242.027 307.454L240.856 306.148L239.48 307.236L240.637 308.7ZM276.562 328.199L276.273 330.043L276.273 330.043L276.562 328.199ZM339.885 295.285C349.35 304.41 361.618 310.818 375.59 313.008L376.168 309.32C362.978 307.252 351.407 301.207 342.476 292.597L339.885 295.285ZM375.59 313.008C411.757 318.678 445.673 293.955 451.343 257.787L447.655 257.209C442.304 291.339 410.298 314.67 376.168 309.32L375.59 313.008ZM451.343 257.787C457.013 221.619 432.289 187.703 396.122 182.033L395.543 185.722C429.674 191.072 453.005 223.078 447.655 257.209L451.343 257.787ZM396.122 182.033C392.817 181.515 389.53 181.251 386.281 181.226L386.253 184.959C389.318 184.983 392.421 185.232 395.543 185.722L396.122 182.033ZM387.988 182.37C379.382 161.89 360.677 146.202 337.11 142.508L336.532 146.196C358.767 149.682 376.421 164.479 384.546 183.816L387.988 182.37ZM337.11 142.508C319.561 139.757 302.537 144.163 289.019 153.559L291.15 156.625C303.911 147.756 319.969 143.6 336.532 146.196L337.11 142.508ZM291.378 153.746C282.418 145.143 270.822 139.103 257.624 137.034L257.046 140.722C269.465 142.669 280.366 148.348 288.792 156.438L291.378 153.746ZM257.624 137.034C226.132 132.097 196.444 151.467 187.648 181.225L191.229 182.283C199.501 154.296 227.428 136.079 257.046 140.722L257.624 137.034ZM189.258 179.896C156.833 183.052 129.373 207.74 124.093 241.419L127.782 241.997C132.791 210.041 158.848 186.607 189.619 183.612L189.258 179.896ZM124.093 241.419C117.833 281.352 145.131 318.8 185.065 325.06L185.643 321.372C147.746 315.431 121.841 279.893 127.782 241.997L124.093 241.419ZM185.065 325.06C206.05 328.35 226.351 322.37 241.795 310.165L239.48 307.236C224.818 318.823 205.558 324.494 185.643 321.372L185.065 325.06ZM276.851 326.354C262.862 324.161 250.797 317.232 242.027 307.454L239.248 309.946C248.571 320.341 261.403 327.712 276.273 330.043L276.851 326.354ZM339.491 293.147C328.601 316.305 303.404 330.517 276.851 326.354L276.273 330.043C304.509 334.469 331.293 319.354 342.87 294.736L339.491 293.147Z" fill="#B8B8B8" mask="url(#path-3-inside-1_46_287)"/>
<defs>
<linearGradient id="paint0_linear_46_287" x1="123.2" y1="341.6" x2="208.133" y2="442.4" gradientUnits="userSpaceOnUse">
<stop stop-color="white"/>
<stop offset="1" stop-color="#A0A0A0"/>
</linearGradient>
<linearGradient id="paint1_linear_46_287" x1="192.267" y1="116.667" x2="495.6" y2="328.533" gradientUnits="userSpaceOnUse">
<stop stop-color="white"/>
<stop offset="1" stop-color="#969696"/>
</linearGradient>
</defs>
</svg>
